<svg width="32" height="13" viewBox="0 0 32 13" fill="none" xmlns="http://www.w3.org/2000/svg">
<path d="M9.93218 12.9936C9.30743 12.9936 8.75281 12.6076 8.52969 12.0223L8.08344 10.8324C8.00057 10.6201 7.79657 10.4786 7.57345 10.4786H3.88872C3.6656 10.4786 3.4616 10.6137 3.3851 10.8259L2.90698 12.0416C2.68386 12.6205 2.12924 13 1.51086 13H1.50449C0.675745 12.9936 0 12.3182 0 11.482C0 11.2955 0.0318748 11.1089 0.101999 10.9353L2.76673 3.96922C2.84323 3.76982 3.06635 3.67334 3.26398 3.75696C3.45523 3.83415 3.55085 4.05284 3.48073 4.24581L0.815994 11.2119C0.66937 11.5914 0.860619 12.0223 1.23674 12.1702C1.31962 12.2024 1.40887 12.2217 1.49811 12.2217H1.50449C1.80411 12.2217 2.07824 12.0352 2.18661 11.7522L2.66473 10.5365C2.86235 10.0283 3.34685 9.70029 3.88235 9.70029H7.56707C8.10894 9.70029 8.59981 10.0412 8.79106 10.5493L9.23731 11.7393C9.37118 12.1252 9.79193 12.3311 10.1744 12.196C10.5569 12.0609 10.7609 11.6364 10.6271 11.2504C10.6207 11.2376 10.6207 11.2247 10.6143 11.2183L6.9487 1.62791C6.68733 0.939667 5.91596 0.598761 5.23384 0.86248C4.99796 0.95253 4.78759 1.11334 4.64097 1.3256C4.52622 1.5057 4.29034 1.55716 4.11185 1.44138C3.93335 1.3256 3.88235 1.08761 3.9971 0.907506C4.00347 0.894642 4.00985 0.888209 4.01622 0.875345C4.69197 -0.0701852 5.99883 -0.282448 6.93595 0.399363C7.26107 0.637354 7.51607 0.965395 7.6627 1.35133L11.3219 10.9353C11.6215 11.7136 11.239 12.5883 10.4613 12.8907C10.3019 12.9614 10.1171 12.9936 9.93218 12.9936ZM6.81483 8.20803H4.65372C4.23935 8.20803 3.90147 7.86712 3.90147 7.44903C3.90147 7.35255 3.9206 7.2625 3.95247 7.17245L5.03621 4.38088C5.15096 4.09143 5.42509 3.89847 5.73746 3.89847C6.04983 3.89847 6.33033 4.09143 6.4387 4.38088L7.51607 7.17245C7.66907 7.56481 7.47145 8.0022 7.08258 8.15657C6.9997 8.18873 6.91045 8.20803 6.81483 8.20803ZM4.66647 7.43617H6.7957L5.73746 4.68963L4.66647 7.43617ZM3.5891 3.28098C3.37873 3.28098 3.2066 3.10731 3.2066 2.89505C3.2066 2.85002 3.21298 2.79857 3.2321 2.75354L3.45523 2.17464C3.52535 1.97525 3.7421 1.8659 3.9461 1.93665C4.14372 2.00741 4.2521 2.2261 4.18197 2.43193C4.18197 2.43836 4.1756 2.4448 4.1756 2.45123L3.95247 3.03012C3.88872 3.1845 3.74847 3.28098 3.5891 3.28098ZM15.6633 12.9936H13.2727C12.5013 12.9936 11.8765 12.3632 11.8765 11.5849V1.40921C11.8765 0.630921 12.5013 0.00700059 13.2727 0.000568409H14.1652C15.319 0.000568409 16.1478 0.0777549 16.696 0.232127C17.4929 0.444389 18.1431 0.849615 18.6212 1.44138C19.1057 2.03314 19.3671 2.77927 19.3544 3.5447C19.3607 4.04641 19.246 4.54169 19.0165 4.99194C18.8571 5.29425 18.6467 5.57083 18.4045 5.80883C18.9464 6.13687 19.3735 6.52923 19.6667 6.97948C20.0492 7.56481 20.2405 8.25949 20.2405 9.05064C20.2469 9.79034 20.0429 10.5107 19.654 11.1347C19.2906 11.7393 18.7615 12.2217 18.1367 12.5433C17.5248 12.8456 16.7151 12.9936 15.6633 12.9936ZM13.2727 0.77243C12.9284 0.77243 12.6415 1.05545 12.6415 1.40921V11.5914C12.6415 11.9387 12.922 12.2281 13.2727 12.2281H15.6633C16.5813 12.2281 17.2953 12.0995 17.7989 11.8486C18.8316 11.3083 19.4819 10.2277 19.4755 9.05064C19.4755 8.41386 19.3225 7.86069 19.0292 7.40401C18.787 7.03094 18.4172 6.7029 17.9327 6.41988C17.6076 6.23335 17.4929 5.81526 17.6777 5.48078C17.716 5.41646 17.7542 5.36501 17.8116 5.31355C18.0284 5.12058 18.2069 4.88902 18.3471 4.63174C18.5192 4.29726 18.6021 3.91777 18.5957 3.5447C18.6085 2.95937 18.4109 2.38691 18.0411 1.93022C17.6586 1.4671 17.155 1.15193 16.5048 0.978259C16.0203 0.843184 15.2361 0.77243 14.1715 0.77243H13.2727ZM15.1533 10.7745H15.0513C14.5731 10.7745 14.1907 10.3885 14.1907 9.90612V7.73848C14.1907 7.25606 14.5795 6.87013 15.0513 6.87013C16.0585 6.87013 16.7725 7.0438 17.2379 7.41044C17.7287 7.78994 17.971 8.31094 17.971 8.96059C17.971 9.54592 17.7415 10.0219 17.3144 10.3371C16.9128 10.633 16.2051 10.7745 15.1533 10.7745ZM15.0513 7.64199C15.0003 7.64199 14.9556 7.68702 14.9556 7.73848V9.90612C14.9556 9.95758 15.0003 10.0026 15.0513 10.0026H15.1533C16.2944 10.0026 16.7215 9.8225 16.8681 9.71316C17.104 9.54592 17.2124 9.3015 17.2124 8.96059C17.2124 8.54893 17.0721 8.25305 16.7725 8.02149C16.4538 7.77064 15.8609 7.64199 15.0513 7.64199ZM15.0768 5.5644H15.0513C14.5731 5.5644 14.1907 5.17204 14.1907 4.69606V3.08801C14.1907 2.6056 14.5795 2.21967 15.0513 2.21967H15.1724C15.7908 2.21967 16.2753 2.36118 16.6068 2.65063C16.9574 2.95294 17.1295 3.35816 17.1295 3.85344C17.1295 4.38088 16.9446 4.80541 16.5876 5.11415C16.237 5.41646 15.7334 5.5644 15.0768 5.5644ZM15.0513 2.99153C15.0003 2.99153 14.9556 3.03656 14.9556 3.08801V4.69606C14.9556 4.74752 15.0003 4.79254 15.0513 4.79254H15.0768C15.5421 4.79254 15.88 4.70249 16.084 4.52882C16.2753 4.36158 16.3645 4.14932 16.3645 3.84701C16.3645 3.57686 16.2816 3.38389 16.1095 3.22952C15.9246 3.06872 15.6059 2.9851 15.1724 2.9851L15.0513 2.99153ZM27.0107 12.9936C25.1109 12.9936 23.5363 12.3761 22.3187 11.1604C21.1011 9.94472 20.4827 8.36883 20.4827 6.47777C20.4827 5.25566 20.7632 4.14932 21.3178 3.19093C21.8725 2.23253 22.6757 1.45424 23.7085 0.875345C24.7285 0.296449 25.8759 0.000568409 27.0426 0.000568409C28.649 0.00700059 30.2045 0.560168 31.4604 1.57645C32.0851 2.08459 32.1808 3.0044 31.6772 3.63475C31.6389 3.68621 31.5943 3.73123 31.5433 3.77626L31.5369 3.78269C31.0078 4.2844 30.1982 4.32299 29.6308 3.87274C28.8212 3.22952 27.9606 2.91435 27.0043 2.91435C25.9907 2.91435 25.1683 3.24882 24.4798 3.94349C23.7913 4.63817 23.4598 5.46792 23.4598 6.47777C23.4598 7.18531 23.6128 7.81566 23.9125 8.35597C24.2121 8.88984 24.652 9.33366 25.1874 9.62311C25.7548 9.93828 26.3987 10.0991 27.0489 10.0862C27.5972 10.0927 28.1454 9.98331 28.649 9.75818C28.9869 9.59738 29.2993 9.39155 29.5862 9.15356C30.2109 8.63898 31.1289 8.72903 31.6389 9.35939C32.1489 9.98974 32.0596 10.916 31.4349 11.4305C31.4222 11.437 31.4158 11.4498 31.403 11.4563C30.9058 11.8679 30.3575 12.2088 29.771 12.4726C28.9614 12.8199 28.0371 12.9936 27.0107 12.9936ZM27.0426 0.77243C26.0098 0.765998 24.9898 1.03615 24.0846 1.54429C23.173 2.05887 22.4653 2.74068 21.9808 3.57686C21.4963 4.41304 21.2477 5.39073 21.2477 6.47777C21.2477 8.1823 21.7705 9.53306 22.8542 10.6137C23.9188 11.6814 25.3213 12.2217 27.0043 12.2217C27.9223 12.2217 28.751 12.0673 29.4587 11.765C29.9814 11.5335 30.4723 11.2247 30.9122 10.8581C31.2118 10.6201 31.2628 10.1827 31.0269 9.88039C31.0142 9.8611 30.995 9.8418 30.9823 9.82894C30.7337 9.57165 30.332 9.53949 30.0515 9.76461C29.7137 10.0412 29.3439 10.2792 28.9487 10.4657C28.3431 10.7359 27.6928 10.8645 27.0362 10.8581C26.2584 10.8645 25.4871 10.6716 24.805 10.2921C24.1483 9.93185 23.6001 9.38512 23.2303 8.72903C22.8606 8.07295 22.6757 7.31395 22.6757 6.47134C22.6757 5.25566 23.0965 4.22008 23.9252 3.39033C24.754 2.56058 25.7867 2.13605 26.9916 2.13605C28.1072 2.13605 29.1527 2.51555 30.0898 3.26168C30.3639 3.47394 30.7464 3.45465 30.995 3.21666L31.0014 3.21022C31.148 3.07515 31.2245 2.87575 31.2182 2.67635C31.2118 2.47696 31.1162 2.29042 30.9632 2.16821C29.8603 1.26771 28.4769 0.778862 27.0426 0.77243Z" fill="#A7F3D0" fill-opacity="0.5"/>
</svg>
