<svg width="15" height="15" viewBox="0 0 15 15" fill="none" xmlns="http://www.w3.org/2000/svg">
<path d="M7.74474 3.77401C7.74474 3.7024 7.71629 3.63372 7.66565 3.58308C7.61502 3.53245 7.54634 3.504 7.47473 3.504C7.40311 3.504 7.33443 3.53245 7.2838 3.58308C7.23316 3.63372 7.20471 3.7024 7.20471 3.77401V7.65676L10.0093 10.4613C10.0602 10.5105 10.1284 10.5377 10.1992 10.5371C10.27 10.5364 10.3377 10.508 10.3878 10.458C10.4378 10.4079 10.4662 10.3402 10.4668 10.2694C10.4675 10.1986 10.4402 10.1304 10.3911 10.0795L7.74474 7.43301V3.77401Z" fill="#A7F3D0" fill-opacity="0.5"/>
<path fill-rule="evenodd" clip-rule="evenodd" d="M15 7.5C15 11.642 11.6423 15 7.50009 15C3.35789 15 0 11.642 0 7.5C0 3.35803 3.35789 0 7.50009 0C11.6423 0 15 3.35803 15 7.5ZM14.46 7.5C14.46 11.3439 11.344 14.46 7.50009 14.46C3.65617 14.46 0.540028 11.3439 0.540028 7.5C0.540028 3.65613 3.65617 0.540022 7.50009 0.540022C11.344 0.540022 14.46 3.65613 14.46 7.5Z" fill="#A7F3D0" fill-opacity="0.5"/>
</svg>
