<svg width="14" height="17" viewBox="0 0 14 17" fill="none" xmlns="http://www.w3.org/2000/svg">
<path d="M1.45833 17H12.5417C12.9283 16.9996 13.299 16.8502 13.5724 16.5846C13.8458 16.319 13.9996 15.9589 14 15.5833V3.68333C14 3.64612 13.9925 3.60928 13.9778 3.5749C13.9631 3.54053 13.9417 3.50929 13.9146 3.48298L10.4146 0.0829813C10.3875 0.0566716 10.3553 0.035802 10.32 0.0215641C10.2846 0.0073261 10.2466 -1.35559e-06 10.2083 1.88107e-10H1.45833C1.07169 0.000421832 0.701012 0.149813 0.427615 0.415398C0.154219 0.680983 0.000434238 1.04107 0 1.41667V15.5833C0.000434238 15.9589 0.154219 16.319 0.427615 16.5846C0.701012 16.8502 1.07169 16.9996 1.45833 17ZM10.5 0.967335L13.0042 3.4H11.375C11.143 3.39975 10.9206 3.31011 10.7566 3.15076C10.5925 2.99141 10.5003 2.77536 10.5 2.55V0.967335ZM0.583333 1.41667C0.583603 1.19131 0.675877 0.975265 0.839913 0.815916C1.00395 0.656567 1.22635 0.566929 1.45833 0.566667H9.91667V2.55C9.9171 2.92559 10.0709 3.28568 10.3443 3.55127C10.6177 3.81685 10.9884 3.96624 11.375 3.96667H13.4167V15.5833C13.4164 15.8087 13.3241 16.0247 13.1601 16.1841C12.9961 16.3434 12.7736 16.4331 12.5417 16.4333H1.45833C1.22635 16.4331 1.00395 16.3434 0.839913 16.1841C0.675877 16.0247 0.583603 15.8087 0.583333 15.5833V1.41667Z" fill="#A7F3D0" fill-opacity="0.5"/>
<path d="M4.66667 5.38333C4.66667 5.45847 4.6974 5.53054 4.75209 5.58367C4.80679 5.63681 4.88098 5.66666 4.95833 5.66666H11.9583C12.0357 5.66666 12.1099 5.63681 12.1646 5.58367C12.2193 5.53054 12.25 5.45847 12.25 5.38333C12.25 5.30818 12.2193 5.23612 12.1646 5.18298C12.1099 5.12984 12.0357 5.09999 11.9583 5.09999H4.95833C4.88098 5.09999 4.80679 5.12984 4.75209 5.18298C4.6974 5.23612 4.66667 5.30818 4.66667 5.38333ZM2.04167 7.36666H7.875C7.95235 7.36666 8.02654 7.33681 8.08124 7.28367C8.13594 7.23054 8.16667 7.15847 8.16667 7.08333C8.16667 7.00818 8.13594 6.93612 8.08124 6.88298C8.02654 6.82985 7.95235 6.79999 7.875 6.79999H2.04167C1.96431 6.79999 1.89013 6.82985 1.83543 6.88298C1.78073 6.93612 1.75 7.00818 1.75 7.08333C1.75 7.15847 1.78073 7.23054 1.83543 7.28367C1.89013 7.33681 1.96431 7.36666 2.04167 7.36666ZM11.9583 8.49999H6.70833C6.63098 8.49999 6.55679 8.52985 6.50209 8.58298C6.4474 8.63612 6.41667 8.70818 6.41667 8.78333C6.41667 8.85847 6.4474 8.93054 6.50209 8.98367C6.55679 9.03681 6.63098 9.06666 6.70833 9.06666H11.9583C12.0357 9.06666 12.1099 9.03681 12.1646 8.98367C12.2193 8.93054 12.25 8.85847 12.25 8.78333C12.25 8.70818 12.2193 8.63612 12.1646 8.58298C12.1099 8.52985 12.0357 8.49999 11.9583 8.49999ZM2.04167 10.7667H9.04167C9.11902 10.7667 9.19321 10.7368 9.24791 10.6837C9.3026 10.6305 9.33333 10.5585 9.33333 10.4833C9.33333 10.4082 9.3026 10.3361 9.24791 10.283C9.19321 10.2298 9.11902 10.2 9.04167 10.2H2.04167C1.96431 10.2 1.89013 10.2298 1.83543 10.283C1.78073 10.3361 1.75 10.4082 1.75 10.4833C1.75 10.5585 1.78073 10.6305 1.83543 10.6837C1.89013 10.7368 1.96431 10.7667 2.04167 10.7667ZM2.04167 5.66666H3.79167C3.86902 5.66666 3.94321 5.63681 3.99791 5.58367C4.0526 5.53054 4.08333 5.45847 4.08333 5.38333C4.08333 5.30818 4.0526 5.23612 3.99791 5.18298C3.94321 5.12984 3.86902 5.09999 3.79167 5.09999H2.04167C1.96431 5.09999 1.89013 5.12984 1.83543 5.18298C1.78073 5.23612 1.75 5.30818 1.75 5.38333C1.75 5.45847 1.78073 5.53054 1.83543 5.58367C1.89013 5.63681 1.96431 5.66666 2.04167 5.66666ZM11.9583 6.79999H9.04167C8.96431 6.79999 8.89012 6.82985 8.83543 6.88298C8.78073 6.93612 8.75 7.00818 8.75 7.08333C8.75 7.15847 8.78073 7.23054 8.83543 7.28367C8.89012 7.33681 8.96431 7.36666 9.04167 7.36666H11.9583C12.0357 7.36666 12.1099 7.33681 12.1646 7.28367C12.2193 7.23054 12.25 7.15847 12.25 7.08333C12.25 7.00818 12.2193 6.93612 12.1646 6.88298C12.1099 6.82985 12.0357 6.79999 11.9583 6.79999ZM2.04167 9.06666H5.54167C5.61902 9.06666 5.69321 9.03681 5.74791 8.98367C5.8026 8.93054 5.83333 8.85847 5.83333 8.78333C5.83333 8.70818 5.8026 8.63612 5.74791 8.58298C5.69321 8.52985 5.61902 8.49999 5.54167 8.49999H2.04167C1.96431 8.49999 1.89013 8.52985 1.83543 8.58298C1.78073 8.63612 1.75 8.70818 1.75 8.78333C1.75 8.85847 1.78073 8.93054 1.83543 8.98367C1.89013 9.03681 1.96431 9.06666 2.04167 9.06666ZM11.9583 10.2H10.2083C10.131 10.2 10.0568 10.2298 10.0021 10.283C9.9474 10.3361 9.91667 10.4082 9.91667 10.4833C9.91667 10.5585 9.9474 10.6305 10.0021 10.6837C10.0568 10.7368 10.131 10.7667 10.2083 10.7667H11.9583C12.0357 10.7667 12.1099 10.7368 12.1646 10.6837C12.2193 10.6305 12.25 10.5585 12.25 10.4833C12.25 10.4082 12.2193 10.3361 12.1646 10.283C12.1099 10.2298 12.0357 10.2 11.9583 10.2ZM9.625 13.6H6.70833C6.63098 13.6 6.55679 13.6298 6.50209 13.683C6.4474 13.7361 6.41667 13.8082 6.41667 13.8833C6.41667 13.9585 6.4474 14.0305 6.50209 14.0837C6.55679 14.1368 6.63098 14.1667 6.70833 14.1667H9.625C9.70235 14.1667 9.77654 14.1368 9.83124 14.0837C9.88594 14.0305 9.91667 13.9585 9.91667 13.8833C9.91667 13.8082 9.88594 13.7361 9.83124 13.683C9.77654 13.6298 9.70235 13.6 9.625 13.6ZM2.04167 14.1667H5.54167C5.61902 14.1667 5.69321 14.1368 5.74791 14.0837C5.8026 14.0305 5.83333 13.9585 5.83333 13.8833C5.83333 13.8082 5.8026 13.7361 5.74791 13.683C5.69321 13.6298 5.61902 13.6 5.54167 13.6H2.04167C1.96431 13.6 1.89013 13.6298 1.83543 13.683C1.78073 13.7361 1.75 13.8082 1.75 13.8833C1.75 13.9585 1.78073 14.0305 1.83543 14.0837C1.89013 14.1368 1.96431 14.1667 2.04167 14.1667ZM2.04167 12.4667H4.375C4.45235 12.4667 4.52654 12.4368 4.58124 12.3837C4.63594 12.3305 4.66667 12.2585 4.66667 12.1833C4.66667 12.1082 4.63594 12.0361 4.58124 11.983C4.52654 11.9298 4.45235 11.9 4.375 11.9H2.04167C1.96431 11.9 1.89013 11.9298 1.83543 11.983C1.78073 12.0361 1.75 12.1082 1.75 12.1833C1.75 12.2585 1.78073 12.3305 1.83543 12.3837C1.89013 12.4368 1.96431 12.4667 2.04167 12.4667ZM2.04167 3.96666H5.54167C5.61902 3.96666 5.69321 3.93681 5.74791 3.88367C5.8026 3.83054 5.83333 3.75847 5.83333 3.68333C5.83333 3.60818 5.8026 3.53612 5.74791 3.48298C5.69321 3.42985 5.61902 3.39999 5.54167 3.39999H2.04167C1.96431 3.39999 1.89013 3.42985 1.83543 3.48298C1.78073 3.53612 1.75 3.60818 1.75 3.68333C1.75 3.75847 1.78073 3.83054 1.83543 3.88367C1.89013 3.93681 1.96431 3.96666 2.04167 3.96666ZM8.75 12.1833C8.75 12.1082 8.71927 12.0361 8.66457 11.983C8.60987 11.9298 8.53569 11.9 8.45833 11.9H5.54167C5.46431 11.9 5.39012 11.9298 5.33543 11.983C5.28073 12.0361 5.25 12.1082 5.25 12.1833C5.25 12.2585 5.28073 12.3305 5.33543 12.3837C5.39012 12.4368 5.46431 12.4667 5.54167 12.4667H8.45833C8.53569 12.4667 8.60987 12.4368 8.66457 12.3837C8.71927 12.3305 8.75 12.2585 8.75 12.1833ZM11.9583 11.9H9.625C9.54764 11.9 9.47346 11.9298 9.41876 11.983C9.36406 12.0361 9.33333 12.1082 9.33333 12.1833C9.33333 12.2585 9.36406 12.3305 9.41876 12.3837C9.47346 12.4368 9.54764 12.4667 9.625 12.4667H11.9583C12.0357 12.4667 12.1099 12.4368 12.1646 12.3837C12.2193 12.3305 12.25 12.2585 12.25 12.1833C12.25 12.1082 12.2193 12.0361 12.1646 11.983C12.1099 11.9298 12.0357 11.9 11.9583 11.9ZM11.9583 13.6H10.7917C10.7143 13.6 10.6401 13.6298 10.5854 13.683C10.5307 13.7361 10.5 13.8082 10.5 13.8833C10.5 13.9585 10.5307 14.0305 10.5854 14.0837C10.6401 14.1368 10.7143 14.1667 10.7917 14.1667H11.9583C12.0357 14.1667 12.1099 14.1368 12.1646 14.0837C12.2193 14.0305 12.25 13.9585 12.25 13.8833C12.25 13.8082 12.2193 13.7361 12.1646 13.683C12.1099 13.6298 12.0357 13.6 11.9583 13.6Z" fill="#A7F3D0" fill-opacity="0.5"/>
</svg>
