<svg width="16" height="16" viewBox="0 0 16 16" fill="none" xmlns="http://www.w3.org/2000/svg">
<path fill-rule="evenodd" clip-rule="evenodd" d="M0 8C0 3.5816 3.5816 0 8 0C12.4184 0 16 3.5816 16 8C16 12.4184 12.4184 16 8 16C3.5816 16 0 12.4184 0 8ZM12.2776 7.6C12.2403 6.62205 12.0646 5.65432 11.756 4.7256C12.0088 4.6992 12.2624 4.6696 12.5152 4.6384L14.2496 4.4224C14.8069 5.39357 15.1286 6.48192 15.1888 7.6H12.2776ZM11.4776 7.6C11.4379 6.64538 11.2553 5.70211 10.936 4.8016C9.03713 4.95519 7.12914 4.95947 5.2296 4.8144C4.91344 5.71112 4.73278 6.64998 4.6936 7.6H11.4776ZM12.416 3.8448C12.0984 3.8848 11.7808 3.92 11.464 3.9512C10.9951 2.84873 10.3375 1.8365 9.5208 0.96C11.2137 1.32643 12.7179 2.29066 13.7576 3.676L12.416 3.8448ZM5.544 4.0352C7.2344 4.15202 8.93098 4.14801 10.6208 4.0232C10.1477 2.9913 9.49393 2.05227 8.6904 1.2504C8.61098 1.17096 8.5167 1.10795 8.41292 1.06496C8.30915 1.02196 8.19793 0.999835 8.0856 0.999835C7.97327 0.999835 7.86205 1.02196 7.75828 1.06496C7.6545 1.10795 7.56022 1.17096 7.4808 1.2504C6.67414 2.05513 6.01842 2.99807 5.5448 4.0344L5.544 4.0352ZM6.688 0.9192C5.85001 1.80925 5.17712 2.84135 4.7008 3.9672C4.328 3.932 3.956 3.8912 3.584 3.8448L2.2416 3.6768C3.32558 2.23279 4.9126 1.24883 6.688 0.92V0.9192ZM0.8112 7.6C0.871318 6.48165 1.19301 5.39301 1.7504 4.4216L3.4848 4.6384C3.7928 4.6776 4.1008 4.712 4.4088 4.7424C4.1036 5.66601 3.9299 6.62798 3.8928 7.6H0.8112ZM4.6936 8.4H11.4776C11.4379 9.35462 11.2553 10.2979 10.936 11.1984C9.03713 11.0448 7.12914 11.0405 5.2296 11.1856C4.91342 10.2889 4.73277 9.35002 4.6936 8.4ZM4.4088 11.2576C4.1036 10.334 3.9299 9.37202 3.8928 8.4H0.8112C0.871318 9.51835 1.19301 10.607 1.7504 11.5784L3.4848 11.3616C3.7928 11.3224 4.1008 11.288 4.4088 11.2576ZM2.2416 12.3232L3.584 12.1552C3.956 12.1088 4.328 12.068 4.7008 12.0336C5.1772 13.1592 5.85009 14.191 6.688 15.0808C4.91248 14.7518 3.32544 13.7675 2.2416 12.3232ZM5.5448 11.9648C7.23493 11.848 8.93124 11.852 10.6208 11.9768C10.1476 13.0084 9.49386 13.9472 8.6904 14.7488C8.61098 14.8282 8.5167 14.8913 8.41292 14.9342C8.30915 14.9772 8.19793 14.9994 8.0856 14.9994C7.97327 14.9994 7.86205 14.9772 7.75828 14.9342C7.6545 14.8913 7.56022 14.8282 7.4808 14.7488C6.67413 13.9441 6.0184 13.0011 5.5448 11.9648ZM11.4632 12.0488C10.9947 13.1509 10.3377 14.1628 9.5216 15.0392C11.2145 14.6728 12.7187 13.7085 13.7584 12.3232L12.416 12.1552C12.0984 12.1152 11.78 12.08 11.4632 12.0488ZM14.2496 11.5784C14.807 10.607 15.1287 9.51835 15.1888 8.4H12.2776C12.2402 9.37795 12.0646 10.3457 11.756 11.2744C12.0096 11.3008 12.2624 11.3304 12.5152 11.3616L14.2496 11.5784Z" fill="#A7F3D0" fill-opacity="0.5"/>
</svg>
