<svg width="23" height="14" viewBox="0 0 23 14" fill="none" xmlns="http://www.w3.org/2000/svg">
<path fill-rule="evenodd" clip-rule="evenodd" d="M15.9203 0.392157C15.9203 0.28815 15.9618 0.188404 16.0356 0.11486C16.1093 0.0413165 16.2094 0 16.3137 0H22.6068C22.6816 2.79321e-05 22.7547 0.0212853 22.8178 0.0612829C22.8809 0.101281 22.9312 0.158363 22.9629 0.225845C22.9946 0.293328 23.0063 0.368417 22.9968 0.44232C22.9872 0.516224 22.9567 0.585881 22.9089 0.643137L19.8866 4.25961C19.6939 4.49019 19.8213 4.84784 20.1061 4.94823C21.0688 5.28661 21.8805 5.95334 22.398 6.83064C22.9154 7.70794 23.1052 8.73934 22.9338 9.74263C22.7624 10.7459 22.2408 11.6565 21.4613 12.3136C20.6817 12.9706 19.6944 13.3318 18.6736 13.3333C17.7373 13.3346 16.826 13.0317 16.0777 12.4706C16.0364 12.4397 16.0015 12.401 15.9752 12.3567C15.9489 12.3123 15.9316 12.2633 15.9243 12.2123C15.917 12.1613 15.9198 12.1094 15.9327 12.0595C15.9455 12.0096 15.968 11.9628 15.999 11.9216C16.03 11.8804 16.0688 11.8457 16.1133 11.8194C16.1577 11.7932 16.2069 11.7759 16.258 11.7686C16.3092 11.7614 16.3612 11.7642 16.4113 11.777C16.4613 11.7898 16.5083 11.8122 16.5497 11.8431C16.9984 12.1787 17.5207 12.4031 18.0734 12.4979C18.6262 12.5927 19.1937 12.5552 19.7291 12.3885C20.2645 12.2217 20.7525 11.9305 21.1528 11.5388C21.5532 11.1472 21.8545 10.6662 22.0318 10.1357C22.2092 9.60516 22.2576 9.04019 22.173 8.48734C22.0884 7.93449 21.8733 7.4096 21.5453 6.95592C21.2173 6.50224 20.7859 6.13276 20.2867 5.87792C19.7874 5.62309 19.2345 5.49019 18.6736 5.49019C18.5989 5.49017 18.5257 5.46891 18.4626 5.42891C18.3996 5.38891 18.3492 5.33183 18.3176 5.26435C18.2859 5.19687 18.2741 5.12178 18.2837 5.04787C18.2932 4.97397 18.3237 4.90431 18.3715 4.84706L21.2294 1.42745C21.2772 1.37019 21.3077 1.30054 21.3173 1.22663C21.3268 1.15273 21.3151 1.07764 21.2834 1.01016C21.2517 0.942676 21.2014 0.885594 21.1383 0.845597C21.0753 0.805599 21.0021 0.784341 20.9273 0.784313H16.3137C16.2094 0.784313 16.1093 0.742997 16.0356 0.669453C15.9618 0.59591 15.9203 0.496163 15.9203 0.392157Z" fill="#A7F3D0" fill-opacity="0.5"/>
<path fill-rule="evenodd" clip-rule="evenodd" d="M12.5663 1.58821C12.1813 1.20426 11.6907 0.942782 11.1566 0.836845C10.6225 0.730908 10.0689 0.785271 9.56578 0.993058C9.06268 1.20084 8.63267 1.55272 8.33015 2.00419C8.02763 2.45565 7.86618 2.98643 7.86622 3.52939C7.86622 3.6334 7.82478 3.73314 7.75102 3.80669C7.67726 3.88023 7.57722 3.92155 7.4729 3.92155C7.36859 3.92155 7.26855 3.88023 7.19479 3.80669C7.12103 3.73314 7.07959 3.6334 7.07959 3.52939C7.07959 2.94898 7.22316 2.37752 7.49758 1.86564C7.77199 1.35376 8.16879 0.917264 8.65281 0.594806C9.13683 0.272347 9.69314 0.0738837 10.2725 0.0169949C10.8518 -0.0398938 11.4362 0.046548 11.974 0.268664C12.5119 0.490779 12.9864 0.841713 13.3557 1.29038C13.725 1.73904 13.9776 2.2716 14.0912 2.84086C14.2048 3.41012 14.1758 3.99852 14.0068 4.55394C13.8378 5.10937 13.5341 5.61467 13.1225 6.02508L8.67251 10.462C8.41686 10.7169 8.21407 11.0195 8.07573 11.3526C7.93738 11.6857 7.86619 12.0426 7.86622 12.4031C7.86622 12.4839 7.93151 12.549 8.01253 12.549H13.7659C13.8702 12.549 13.9703 12.5903 14.044 12.6639C14.1178 12.7374 14.1592 12.8372 14.1592 12.9412C14.1592 13.0452 14.1178 13.1449 14.044 13.2185C13.9703 13.292 13.8702 13.3333 13.7659 13.3333H7.4729C7.36859 13.3333 7.26855 13.292 7.19479 13.2185C7.12103 13.1449 7.07959 13.0452 7.07959 12.9412V12.4031C7.07959 11.9396 7.17114 11.4807 7.34903 11.0525C7.52692 10.6243 7.78766 10.2352 8.11636 9.90744L12.5663 5.47057C12.822 5.21566 13.0248 4.91303 13.1632 4.57996C13.3016 4.24689 13.3728 3.88991 13.3728 3.52939C13.3728 3.16887 13.3016 2.81189 13.1632 2.47882C13.0248 2.14575 12.822 1.84312 12.5663 1.58821Z" fill="#A7F3D0" fill-opacity="0.5"/>
<path fill-rule="evenodd" clip-rule="evenodd" d="M3.26641 0.029964C3.34732 0.0596068 3.41648 0.109859 3.46515 0.174361C3.51382 0.238863 3.53981 0.314714 3.53982 0.392313V12.9412C3.53982 13.0452 3.49321 13.1449 3.41025 13.2185C3.32728 13.292 3.21475 13.3333 3.09741 13.3333C2.98008 13.3333 2.86755 13.292 2.78458 13.2185C2.70162 13.1449 2.65501 13.0452 2.65501 12.9412V2.28562C2.65499 2.20803 2.629 2.13218 2.58033 2.06768C2.53166 2.00319 2.4625 1.95294 2.3816 1.92329C2.3007 1.89365 2.2117 1.88595 2.12586 1.90117C2.04001 1.91638 1.9612 1.95383 1.89937 2.00876L0.756192 3.02287C0.673119 3.0965 0.560449 3.13787 0.442967 3.13787C0.325485 3.13787 0.212814 3.0965 0.129742 3.02287C0.0466693 2.94923 8.7531e-10 2.84936 0 2.74523C-8.75309e-10 2.64109 0.0466693 2.54122 0.129742 2.46758L2.78419 0.114669C2.84611 0.0598597 2.92497 0.0225578 3.01081 0.00748036C3.09664 -0.00759709 3.1856 0.000227333 3.26641 0.029964Z" fill="#A7F3D0" fill-opacity="0.5"/>
</svg>
