<svg width="14" height="14" viewBox="0 0 14 14" fill="none" xmlns="http://www.w3.org/2000/svg">
<path fill-rule="evenodd" clip-rule="evenodd" d="M7.77778 12.4444H9.33333C9.53961 12.4444 9.73744 12.5264 9.88331 12.6722C10.0292 12.8181 10.1111 13.0159 10.1111 13.2222C10.1111 13.4285 10.0292 13.6263 9.88331 13.7722C9.73744 13.9181 9.53961 14 9.33333 14H4.66667C4.46039 14 4.26256 13.9181 4.11669 13.7722C3.97083 13.6263 3.88889 13.4285 3.88889 13.2222C3.88889 13.0159 3.97083 12.8181 4.11669 12.6722C4.26256 12.5264 4.46039 12.4444 4.66667 12.4444H6.22222V1.55556H1.55556V3.11111C1.55556 3.31739 1.47361 3.51522 1.32775 3.66108C1.18189 3.80694 0.984057 3.88889 0.777778 3.88889C0.571498 3.88889 0.373667 3.80694 0.227806 3.66108C0.0819442 3.51522 0 3.31739 0 3.11111V0.777778C0 0.571498 0.0819442 0.373667 0.227806 0.227806C0.373667 0.0819442 0.571498 0 0.777778 0H13.2222C13.4285 0 13.6263 0.0819442 13.7722 0.227806C13.9181 0.373667 14 0.571498 14 0.777778V3.11111C14 3.31739 13.9181 3.51522 13.7722 3.66108C13.6263 3.80694 13.4285 3.88889 13.2222 3.88889C13.0159 3.88889 12.8181 3.80694 12.6722 3.66108C12.5264 3.51522 12.4444 3.31739 12.4444 3.11111V1.55556H7.77778V12.4444Z" fill="#A7F3D0" fill-opacity="0.5"/>
</svg>
